<svg width="1414" height="547" viewBox="0 0 1414 547" fill="none" xmlns="http://www.w3.org/2000/svg">
<path d="M516.58 0.734497L491.308 45.7345" stroke="#F4E5A2" stroke-width="3" stroke-miterlimit="10"/>
<path d="M528.9 0.734497L503.627 45.7345" stroke="#F4E5A2" stroke-width="3" stroke-miterlimit="10"/>
<path d="M541.22 0.734497L515.948 45.7345" stroke="#F4E5A2" stroke-width="3" stroke-miterlimit="10"/>
<path d="M553.521 0.734497L528.249 45.7345" stroke="#F4E5A2" stroke-width="3" stroke-miterlimit="10"/>
<path d="M565.84 0.734497L540.568 45.7345" stroke="#F4E5A2" stroke-width="3" stroke-miterlimit="10"/>
<path d="M578.142 0.734497L552.87 45.7345" stroke="#F4E5A2" stroke-width="3" stroke-miterlimit="10"/>
<path d="M590.461 0.734497L565.189 45.7345" stroke="#F4E5A2" stroke-width="3" stroke-miterlimit="10"/>
<path d="M602.762 0.734497L577.49 45.7345" stroke="#F4E5A2" stroke-width="3" stroke-miterlimit="10"/>
<path d="M615.082 0.734497L589.81 45.7345" stroke="#F4E5A2" stroke-width="3" stroke-miterlimit="10"/>
<path d="M627.383 0.734497L602.111 45.7345" stroke="#F4E5A2" stroke-width="3" stroke-miterlimit="10"/>
<path d="M639.703 0.734497L614.431 45.7345" stroke="#F4E5A2" stroke-width="3" stroke-miterlimit="10"/>
<path d="M652.023 0.734497L626.75 45.7345" stroke="#F4E5A2" stroke-width="3" stroke-miterlimit="10"/>
<path d="M664.323 0.734497L639.051 45.7345" stroke="#F4E5A2" stroke-width="3" stroke-miterlimit="10"/>
<path d="M676.643 0.734497L651.371 45.7345" stroke="#F4E5A2" stroke-width="3" stroke-miterlimit="10"/>
<path d="M688.944 0.734497L663.672 45.7345" stroke="#F4E5A2" stroke-width="3" stroke-miterlimit="10"/>
<path d="M701.264 0.734497L675.992 45.7345" stroke="#F4E5A2" stroke-width="3" stroke-miterlimit="10"/>
<path d="M713.565 0.734497L688.293 45.7345" stroke="#F4E5A2" stroke-width="3" stroke-miterlimit="10"/>
<path d="M725.885 0.734497L700.613 45.7345" stroke="#F4E5A2" stroke-width="3" stroke-miterlimit="10"/>
<path d="M738.186 0.734497L712.933 45.7345" stroke="#F4E5A2" stroke-width="3" stroke-miterlimit="10"/>
<path d="M750.506 0.734497L725.233 45.7345" stroke="#F4E5A2" stroke-width="3" stroke-miterlimit="10"/>
<path d="M762.825 0.734497L737.553 45.7345" stroke="#F4E5A2" stroke-width="3" stroke-miterlimit="10"/>
<path d="M775.126 0.734497L749.854 45.7345" stroke="#F4E5A2" stroke-width="3" stroke-miterlimit="10"/>
<path d="M787.446 0.734497L762.174 45.7345" stroke="#F4E5A2" stroke-width="3" stroke-miterlimit="10"/>
<path d="M799.747 0.734497L774.475 45.7345" stroke="#F4E5A2" stroke-width="3" stroke-miterlimit="10"/>
<path d="M812.067 0.734497L786.795 45.7345" stroke="#F4E5A2" stroke-width="3" stroke-miterlimit="10"/>
<path d="M824.368 0.734497L799.096 45.7345" stroke="#F4E5A2" stroke-width="3" stroke-miterlimit="10"/>
<path d="M836.688 0.734497L811.416 45.7345" stroke="#F4E5A2" stroke-width="3" stroke-miterlimit="10"/>
<path d="M848.988 0.734497L823.734 45.7345" stroke="#F4E5A2" stroke-width="3" stroke-miterlimit="10"/>
<path d="M861.308 0.734497L836.036 45.7345" stroke="#F4E5A2" stroke-width="3" stroke-miterlimit="10"/>
<path d="M553.048 23.7345H931.308L902.497 165.734H523.308L553.048 23.7345Z" fill="url(#paint0_linear_98_239)"/>
<g filter="url(#filter0_d_98_239)">
<path d="M633.052 52.6065V128.734H609.756V85.9905L602.788 93.2705L589.684 78.7105L616.62 52.6065H633.052Z" fill="white"/>
</g>
<g filter="url(#filter1_d_98_239)">
<path d="M660.212 58.1505C667.38 59.6625 670.236 61.7345 670.236 66.9425C670.236 72.9345 665.812 76.4625 657.524 76.4625C651.812 76.4625 646.324 74.6145 645.148 69.6305L653.38 67.0545C653.716 68.1745 654.836 69.3505 657.412 69.3505C659.316 69.3505 660.828 68.7905 660.828 67.3345C660.828 65.3745 657.86 65.4865 654.5 64.7585C649.068 63.5265 646.1 61.5665 646.1 56.0225C646.1 50.0865 651.196 46.6705 658.308 46.6705C663.18 46.6705 667.996 49.0785 669.228 53.8945L661.612 55.7425C661.276 54.3985 660.044 53.6705 658.364 53.6705C656.572 53.6705 654.892 54.1745 654.892 55.7425C654.892 57.5905 657.972 57.7025 660.212 58.1505ZM690.445 54.8465H684.845V63.8065C684.845 66.7745 685.909 68.2865 688.709 68.2865C689.437 68.2865 689.997 68.1745 690.445 68.1185V75.7345C689.493 76.0705 688.317 76.2385 686.525 76.2385C677.789 76.2385 675.773 70.3025 675.773 64.7585V54.8465H672.245V47.3425H675.773V41.4065H684.845V47.3425H690.445V54.8465Z" fill="white"/>
</g>
<g filter="url(#filter2_d_98_239)">
<path d="M717.284 86.5345C727.028 86.5345 732.852 92.1345 732.852 100.59C732.852 109.83 725.796 114.142 717.284 114.142H712.244V125.734H702.668V86.5345H717.284ZM717.284 105.574C720.756 105.574 723.108 104.006 723.108 100.59C723.108 97.5665 720.98 95.6065 717.284 95.6065H712.244V105.574H717.284ZM747.519 116.718H762.135V125.734H737.887V86.5345H747.519V116.718ZM793.911 125.734L791.615 118.454H776.775L774.479 125.734H764.399L778.511 86.5345H789.823L803.935 125.734H793.911ZM779.015 111.174H789.319L784.167 94.8785L779.015 111.174ZM824.673 117.222C828.201 117.222 830.833 115.766 832.513 113.582L840.521 118.846C836.993 123.55 831.393 126.462 824.673 126.462C813.081 126.462 804.737 117.782 804.737 106.134C804.737 94.5425 813.081 85.8625 824.673 85.8625C831.393 85.8625 836.993 88.7745 840.521 93.4225L832.513 98.6865C830.833 96.5585 828.201 95.1025 824.673 95.1025C817.841 95.1025 814.369 100.59 814.369 106.134C814.369 111.678 817.841 117.222 824.673 117.222ZM854.322 116.718H869.386V125.734H844.746V86.5345H868.882V95.6065H854.322V101.654H867.09V110.222H854.322V116.718Z" fill="white"/>
</g>
<path d="M987.58 313.734L962.308 358.734" stroke="#F4E5A2" stroke-width="3" stroke-miterlimit="10"/>
<path d="M999.9 313.734L974.627 358.734" stroke="#F4E5A2" stroke-width="3" stroke-miterlimit="10"/>
<path d="M1012.22 313.734L986.948 358.734" stroke="#F4E5A2" stroke-width="3" stroke-miterlimit="10"/>
<path d="M1024.52 313.734L999.249 358.734" stroke="#F4E5A2" stroke-width="3" stroke-miterlimit="10"/>
<path d="M1036.84 313.734L1011.57 358.734" stroke="#F4E5A2" stroke-width="3" stroke-miterlimit="10"/>
<path d="M1049.14 313.734L1023.87 358.734" stroke="#F4E5A2" stroke-width="3" stroke-miterlimit="10"/>
<path d="M1061.46 313.734L1036.19 358.734" stroke="#F4E5A2" stroke-width="3" stroke-miterlimit="10"/>
<path d="M1073.76 313.734L1048.49 358.734" stroke="#F4E5A2" stroke-width="3" stroke-miterlimit="10"/>
<path d="M1086.08 313.734L1060.81 358.734" stroke="#F4E5A2" stroke-width="3" stroke-miterlimit="10"/>
<path d="M1098.38 313.734L1073.11 358.734" stroke="#F4E5A2" stroke-width="3" stroke-miterlimit="10"/>
<path d="M1110.7 313.734L1085.43 358.734" stroke="#F4E5A2" stroke-width="3" stroke-miterlimit="10"/>
<path d="M1123.02 313.734L1097.75 358.734" stroke="#F4E5A2" stroke-width="3" stroke-miterlimit="10"/>
<path d="M1135.32 313.734L1110.05 358.734" stroke="#F4E5A2" stroke-width="3" stroke-miterlimit="10"/>
<path d="M1147.64 313.734L1122.37 358.734" stroke="#F4E5A2" stroke-width="3" stroke-miterlimit="10"/>
<path d="M1159.94 313.734L1134.67 358.734" stroke="#F4E5A2" stroke-width="3" stroke-miterlimit="10"/>
<path d="M1172.26 313.734L1146.99 358.734" stroke="#F4E5A2" stroke-width="3" stroke-miterlimit="10"/>
<path d="M1184.57 313.734L1159.29 358.734" stroke="#F4E5A2" stroke-width="3" stroke-miterlimit="10"/>
<path d="M1196.88 313.734L1171.61 358.734" stroke="#F4E5A2" stroke-width="3" stroke-miterlimit="10"/>
<path d="M1209.19 313.734L1183.93 358.734" stroke="#F4E5A2" stroke-width="3" stroke-miterlimit="10"/>
<path d="M1221.51 313.734L1196.23 358.734" stroke="#F4E5A2" stroke-width="3" stroke-miterlimit="10"/>
<path d="M1233.83 313.734L1208.55 358.734" stroke="#F4E5A2" stroke-width="3" stroke-miterlimit="10"/>
<path d="M1246.13 313.734L1220.85 358.734" stroke="#F4E5A2" stroke-width="3" stroke-miterlimit="10"/>
<path d="M1258.45 313.734L1233.17 358.734" stroke="#F4E5A2" stroke-width="3" stroke-miterlimit="10"/>
<path d="M1270.75 313.734L1245.48 358.734" stroke="#F4E5A2" stroke-width="3" stroke-miterlimit="10"/>
<path d="M1283.07 313.734L1257.79 358.734" stroke="#F4E5A2" stroke-width="3" stroke-miterlimit="10"/>
<path d="M1295.37 313.734L1270.1 358.734" stroke="#F4E5A2" stroke-width="3" stroke-miterlimit="10"/>
<path d="M1307.69 313.734L1282.42 358.734" stroke="#F4E5A2" stroke-width="3" stroke-miterlimit="10"/>
<path d="M1319.99 313.734L1294.73 358.734" stroke="#F4E5A2" stroke-width="3" stroke-miterlimit="10"/>
<path d="M1332.31 313.734L1307.04 358.734" stroke="#F4E5A2" stroke-width="3" stroke-miterlimit="10"/>
<path d="M1035.05 339.734H1413.31L1384.5 481.734H1005.31L1035.05 339.734Z" fill="url(#paint1_linear_98_239)"/>
<g filter="url(#filter3_d_98_239)">
<path d="M1120.8 389.926C1120.8 395.126 1119.86 399.113 1117.99 401.886C1116.19 404.59 1113.38 406.185 1109.56 406.67C1113.38 407.78 1116.19 409.79 1117.99 412.702C1119.86 415.545 1120.8 419.462 1120.8 424.454C1120.8 431.873 1118.65 437.316 1114.35 440.782C1110.05 444.249 1103.36 445.982 1094.28 445.982C1087.55 445.982 1082.07 445.185 1077.84 443.59C1073.68 441.926 1070.43 439.222 1068.07 435.478C1065.71 431.734 1064.12 426.569 1063.28 419.982L1081.38 417.694C1081.38 420.884 1082.28 423.241 1084.08 424.766C1085.89 426.292 1088.17 427.054 1090.95 427.054C1093.86 427.054 1095.91 426.569 1097.08 425.598C1098.33 424.628 1098.96 423.172 1098.96 421.23C1098.96 418.734 1097.88 416.932 1095.73 415.822C1093.58 414.644 1090.22 414.089 1085.64 414.158V399.806L1088.04 399.91C1091.78 399.91 1094.52 399.321 1096.25 398.142C1098.05 396.894 1098.96 395.022 1098.96 392.526C1098.96 390.446 1098.33 388.886 1097.08 387.846C1095.91 386.806 1093.86 386.286 1090.95 386.286C1088.11 386.286 1085.78 387.188 1083.98 388.99C1082.25 390.724 1081.38 393.081 1081.38 396.062L1063.28 393.462C1064.39 384.518 1067.31 377.932 1072.02 373.702C1076.73 369.473 1083.56 367.358 1092.51 367.358C1102.21 367.358 1109.36 369.196 1113.93 372.87C1118.51 376.476 1120.8 382.161 1120.8 389.926Z" fill="white"/>
</g>
<g filter="url(#filter4_d_98_239)">
<path d="M1138.46 367.654C1140.48 364.462 1144.06 362.67 1147.42 362.67V372.414C1139.36 371.182 1138.46 375.774 1138.46 380.534V391.734H1129.39V363.342H1138.46V367.654ZM1171.31 352.534H1180.38V391.734H1171.31V388.99C1169.63 391.006 1167.11 392.462 1163.3 392.462C1154.45 392.462 1149.69 385.014 1149.69 377.566C1149.69 370.118 1154.45 362.67 1163.3 362.67C1167.11 362.67 1169.63 364.126 1171.31 366.142V352.534ZM1164.92 383.614C1168.34 383.614 1171.03 381.318 1171.03 377.566C1171.03 373.758 1168.34 371.462 1164.92 371.462C1161.17 371.462 1158.88 374.038 1158.88 377.566C1158.88 381.038 1161.17 383.614 1164.92 383.614Z" fill="white"/>
</g>
<g filter="url(#filter5_d_98_239)">
<path d="M1199.28 402.534C1209.03 402.534 1214.85 408.134 1214.85 416.59C1214.85 425.83 1207.8 430.142 1199.28 430.142H1194.24V441.734H1184.67V402.534H1199.28ZM1199.28 421.574C1202.76 421.574 1205.11 420.006 1205.11 416.59C1205.11 413.566 1202.98 411.606 1199.28 411.606H1194.24V421.574H1199.28ZM1229.52 432.718H1244.13V441.734H1219.89V402.534H1229.52V432.718ZM1275.91 441.734L1273.62 434.454H1258.78L1256.48 441.734H1246.4L1260.51 402.534H1271.82L1285.94 441.734H1275.91ZM1261.02 427.174H1271.32L1266.17 410.878L1261.02 427.174ZM1306.67 433.222C1310.2 433.222 1312.83 431.766 1314.51 429.582L1322.52 434.846C1318.99 439.55 1313.39 442.462 1306.67 442.462C1295.08 442.462 1286.74 433.782 1286.74 422.134C1286.74 410.542 1295.08 401.862 1306.67 401.862C1313.39 401.862 1318.99 404.774 1322.52 409.422L1314.51 414.686C1312.83 412.558 1310.2 411.102 1306.67 411.102C1299.84 411.102 1296.37 416.59 1296.37 422.134C1296.37 427.678 1299.84 433.222 1306.67 433.222ZM1336.32 432.718H1351.39V441.734H1326.75V402.534H1350.88V411.606H1336.32V417.654H1349.09V426.222H1336.32V432.718Z" fill="white"/>
</g>
<path d="M26.5802 313.734L1.30811 358.734" stroke="#F4E5A2" stroke-width="3" stroke-miterlimit="10"/>
<path d="M38.8995 313.734L13.6274 358.734" stroke="#F4E5A2" stroke-width="3" stroke-miterlimit="10"/>
<path d="M51.2198 313.734L25.9478 358.734" stroke="#F4E5A2" stroke-width="3" stroke-miterlimit="10"/>
<path d="M63.5212 313.734L38.249 358.734" stroke="#F4E5A2" stroke-width="3" stroke-miterlimit="10"/>
<path d="M75.8405 313.734L50.5684 358.734" stroke="#F4E5A2" stroke-width="3" stroke-miterlimit="10"/>
<path d="M88.1417 313.734L62.8696 358.734" stroke="#F4E5A2" stroke-width="3" stroke-miterlimit="10"/>
<path d="M100.461 313.734L75.189 358.734" stroke="#F4E5A2" stroke-width="3" stroke-miterlimit="10"/>
<path d="M112.762 313.734L87.4902 358.734" stroke="#F4E5A2" stroke-width="3" stroke-miterlimit="10"/>
<path d="M125.082 313.734L99.8101 358.734" stroke="#F4E5A2" stroke-width="3" stroke-miterlimit="10"/>
<path d="M137.383 313.734L112.111 358.734" stroke="#F4E5A2" stroke-width="3" stroke-miterlimit="10"/>
<path d="M149.703 313.734L124.431 358.734" stroke="#F4E5A2" stroke-width="3" stroke-miterlimit="10"/>
<path d="M162.023 313.734L136.75 358.734" stroke="#F4E5A2" stroke-width="3" stroke-miterlimit="10"/>
<path d="M174.323 313.734L149.051 358.734" stroke="#F4E5A2" stroke-width="3" stroke-miterlimit="10"/>
<path d="M186.643 313.734L161.371 358.734" stroke="#F4E5A2" stroke-width="3" stroke-miterlimit="10"/>
<path d="M198.944 313.734L173.672 358.734" stroke="#F4E5A2" stroke-width="3" stroke-miterlimit="10"/>
<path d="M211.264 313.734L185.992 358.734" stroke="#F4E5A2" stroke-width="3" stroke-miterlimit="10"/>
<path d="M223.565 313.734L198.293 358.734" stroke="#F4E5A2" stroke-width="3" stroke-miterlimit="10"/>
<path d="M235.885 313.734L210.613 358.734" stroke="#F4E5A2" stroke-width="3" stroke-miterlimit="10"/>
<path d="M248.186 313.734L222.933 358.734" stroke="#F4E5A2" stroke-width="3" stroke-miterlimit="10"/>
<path d="M260.506 313.734L235.233 358.734" stroke="#F4E5A2" stroke-width="3" stroke-miterlimit="10"/>
<path d="M272.825 313.734L247.553 358.734" stroke="#F4E5A2" stroke-width="3" stroke-miterlimit="10"/>
<path d="M285.126 313.734L259.854 358.734" stroke="#F4E5A2" stroke-width="3" stroke-miterlimit="10"/>
<path d="M297.446 313.734L272.174 358.734" stroke="#F4E5A2" stroke-width="3" stroke-miterlimit="10"/>
<path d="M309.747 313.734L284.475 358.734" stroke="#F4E5A2" stroke-width="3" stroke-miterlimit="10"/>
<path d="M322.067 313.734L296.795 358.734" stroke="#F4E5A2" stroke-width="3" stroke-miterlimit="10"/>
<path d="M334.368 313.734L309.096 358.734" stroke="#F4E5A2" stroke-width="3" stroke-miterlimit="10"/>
<path d="M346.688 313.734L321.416 358.734" stroke="#F4E5A2" stroke-width="3" stroke-miterlimit="10"/>
<path d="M358.988 313.734L333.734 358.734" stroke="#F4E5A2" stroke-width="3" stroke-miterlimit="10"/>
<path d="M371.308 313.734L346.036 358.734" stroke="#F4E5A2" stroke-width="3" stroke-miterlimit="10"/>
<path d="M71.0484 339.734H449.308L420.497 481.734H41.3081L71.0484 339.734Z" fill="url(#paint2_linear_98_239)"/>
<g filter="url(#filter6_d_98_239)">
<path d="M162.916 393.15C162.916 398.073 161.46 402.718 158.548 407.086C155.636 411.385 151.095 415.684 144.924 419.982L142.428 421.75C138.892 424.177 136.847 425.633 136.292 426.118H163.748V444.734H106.236V426.638L132.86 404.694C135.425 402.614 137.297 400.638 138.476 398.766C139.655 396.825 140.244 394.884 140.244 392.942C140.244 389.06 138.199 387.118 134.108 387.118C131.404 387.118 129.116 388.713 127.244 391.902C126.135 393.774 125.233 396.478 124.54 400.014L103.844 394.71C106.479 385.35 110.223 378.486 115.076 374.118C119.999 369.681 126.343 367.462 134.108 367.462C143.953 367.462 151.199 369.542 155.844 373.702C160.559 377.862 162.916 384.345 162.916 393.15Z" fill="white"/>
</g>
<g filter="url(#filter7_d_98_239)">
<path d="M189.244 362.67C196.3 362.67 199.66 368.27 199.66 373.982V391.734H190.532V376.446C190.532 373.198 188.516 371.574 185.996 371.574C183.364 371.574 181.46 373.31 181.46 376.446V391.734H172.388V363.342H181.46V365.974C183.084 364.126 185.548 362.67 189.244 362.67ZM225.738 352.534H234.81V391.734H225.738V388.99C224.058 391.006 221.538 392.462 217.73 392.462C208.882 392.462 204.122 385.014 204.122 377.566C204.122 370.118 208.882 362.67 217.73 362.67C221.538 362.67 224.058 364.126 225.738 366.142V352.534ZM219.354 383.614C222.77 383.614 225.458 381.318 225.458 377.566C225.458 373.758 222.77 371.462 219.354 371.462C215.602 371.462 213.306 374.038 213.306 377.566C213.306 381.038 215.602 383.614 219.354 383.614Z" fill="white"/>
</g>
<g filter="url(#filter8_d_98_239)">
<path d="M240.284 402.534C250.028 402.534 255.852 408.134 255.852 416.59C255.852 425.83 248.796 430.142 240.284 430.142H235.244V441.734H225.668V402.534H240.284ZM240.284 421.574C243.756 421.574 246.108 420.006 246.108 416.59C246.108 413.566 243.98 411.606 240.284 411.606H235.244V421.574H240.284ZM270.519 432.718H285.135V441.734H260.887V402.534H270.519V432.718ZM316.911 441.734L314.615 434.454H299.775L297.479 441.734H287.399L301.511 402.534H312.823L326.935 441.734H316.911ZM302.015 427.174H312.319L307.167 410.878L302.015 427.174ZM347.673 433.222C351.201 433.222 353.833 431.766 355.513 429.582L363.521 434.846C359.993 439.55 354.393 442.462 347.673 442.462C336.081 442.462 327.737 433.782 327.737 422.134C327.737 410.542 336.081 401.862 347.673 401.862C354.393 401.862 359.993 404.774 363.521 409.422L355.513 414.686C353.833 412.558 351.201 411.102 347.673 411.102C340.841 411.102 337.369 416.59 337.369 422.134C337.369 427.678 340.841 433.222 347.673 433.222ZM377.322 432.718H392.386V441.734H367.746V402.534H391.882V411.606H377.322V417.654H390.09V426.222H377.322V432.718Z" fill="white"/>
</g>
<rect x="523.308" y="170.734" width="379" height="56" fill="#03695E"/>
<g filter="url(#filter9_d_98_239)">
<path d="M614.407 212.734H607.491L603.007 203.842C602.893 203.842 602.779 203.842 602.627 203.842H598.903V212.734H592.405V186.134H602.627C609.391 186.134 612.849 190.01 612.849 195.33C612.849 198.522 611.291 200.916 608.745 202.36L614.407 212.734ZM598.903 192.29V198.37H602.627C604.527 198.37 606.275 197.61 606.275 195.33C606.275 193.354 604.793 192.29 602.627 192.29H598.903ZM628.52 193.012C634.486 193.012 637.754 198.066 637.754 203.12C637.754 208.174 634.486 213.228 628.52 213.228C625.898 213.228 624.188 212.24 623.086 210.872V220.068H616.892V193.468H623.086V195.368C624.188 194 625.898 193.012 628.52 193.012ZM627.38 207.224C629.964 207.224 631.522 205.476 631.522 203.12C631.522 200.726 629.964 198.978 627.38 198.978C625.062 198.978 623.276 200.536 623.276 203.12C623.276 205.666 625.062 207.224 627.38 207.224ZM650.092 186.134H667.724V191.72L658.642 212.734H652.106L660.922 192.29H650.092V186.134ZM670.397 206.388C672.259 206.388 673.817 207.946 673.817 209.808C673.817 211.708 672.259 213.228 670.397 213.228C668.497 213.228 666.977 211.708 666.977 209.808C666.977 207.946 668.497 206.388 670.397 206.388ZM687.277 185.678C695.257 185.678 698.677 192.024 698.677 199.434C698.677 206.844 695.257 213.228 687.277 213.228C679.335 213.228 675.915 206.844 675.915 199.434C675.915 192.024 679.335 185.678 687.277 185.678ZM687.277 206.958C690.887 206.958 692.179 203.348 692.179 199.434C692.179 195.558 690.887 191.948 687.277 191.948C683.705 191.948 682.413 195.558 682.413 199.434C682.413 203.348 683.705 206.958 687.277 206.958ZM712.697 185.678C720.677 185.678 724.097 192.024 724.097 199.434C724.097 206.844 720.677 213.228 712.697 213.228C704.755 213.228 701.335 206.844 701.335 199.434C701.335 192.024 704.755 185.678 712.697 185.678ZM712.697 206.958C716.307 206.958 717.599 203.348 717.599 199.434C717.599 195.558 716.307 191.948 712.697 191.948C709.125 191.948 707.833 195.558 707.833 199.434C707.833 203.348 709.125 206.958 712.697 206.958ZM738.117 185.678C746.097 185.678 749.517 192.024 749.517 199.434C749.517 206.844 746.097 213.228 738.117 213.228C730.175 213.228 726.755 206.844 726.755 199.434C726.755 192.024 730.175 185.678 738.117 185.678ZM738.117 206.958C741.727 206.958 743.019 203.348 743.019 199.434C743.019 195.558 741.727 191.948 738.117 191.948C734.545 191.948 733.253 195.558 733.253 199.434C733.253 203.348 734.545 206.958 738.117 206.958ZM755.043 206.388C756.905 206.388 758.463 207.946 758.463 209.808C758.463 211.708 756.905 213.228 755.043 213.228C753.143 213.228 751.623 211.708 751.623 209.808C751.623 207.946 753.143 206.388 755.043 206.388ZM771.924 185.678C779.904 185.678 783.324 192.024 783.324 199.434C783.324 206.844 779.904 213.228 771.924 213.228C763.982 213.228 760.562 206.844 760.562 199.434C760.562 192.024 763.982 185.678 771.924 185.678ZM771.924 206.958C775.534 206.958 776.826 203.348 776.826 199.434C776.826 195.558 775.534 191.948 771.924 191.948C768.352 191.948 767.06 195.558 767.06 199.434C767.06 203.348 768.352 206.958 771.924 206.958ZM797.344 185.678C805.324 185.678 808.744 192.024 808.744 199.434C808.744 206.844 805.324 213.228 797.344 213.228C789.402 213.228 785.982 206.844 785.982 199.434C785.982 192.024 789.402 185.678 797.344 185.678ZM797.344 206.958C800.954 206.958 802.246 203.348 802.246 199.434C802.246 195.558 800.954 191.948 797.344 191.948C793.772 191.948 792.48 195.558 792.48 199.434C792.48 203.348 793.772 206.958 797.344 206.958ZM822.764 185.678C830.744 185.678 834.164 192.024 834.164 199.434C834.164 206.844 830.744 213.228 822.764 213.228C814.822 213.228 811.402 206.844 811.402 199.434C811.402 192.024 814.822 185.678 822.764 185.678ZM822.764 206.958C826.374 206.958 827.666 203.348 827.666 199.434C827.666 195.558 826.374 191.948 822.764 191.948C819.192 191.948 817.9 195.558 817.9 199.434C817.9 203.348 819.192 206.958 822.764 206.958Z" fill="white"/>
</g>
<rect x="41.3081" y="486.734" width="379" height="56" fill="#03695E"/>
<g filter="url(#filter10_d_98_239)">
<path d="M129.939 528.734H123.023L118.539 519.842C118.425 519.842 118.311 519.842 118.159 519.842H114.435V528.734H107.937V502.134H118.159C124.923 502.134 128.381 506.01 128.381 511.33C128.381 514.522 126.823 516.916 124.277 518.36L129.939 528.734ZM114.435 508.29V514.37H118.159C120.059 514.37 121.807 513.61 121.807 511.33C121.807 509.354 120.325 508.29 118.159 508.29H114.435ZM144.052 509.012C150.018 509.012 153.286 514.066 153.286 519.12C153.286 524.174 150.018 529.228 144.052 529.228C141.43 529.228 139.72 528.24 138.618 526.872V536.068H132.424V509.468H138.618V511.368C139.72 510 141.43 509.012 144.052 509.012ZM142.912 523.224C145.496 523.224 147.054 521.476 147.054 519.12C147.054 516.726 145.496 514.978 142.912 514.978C140.594 514.978 138.808 516.536 138.808 519.12C138.808 521.666 140.594 523.224 142.912 523.224ZM176.568 511.558C182.002 511.558 184.966 515.054 184.966 519.88C184.966 524.782 181.242 529.228 175.2 529.228C170.108 529.228 166.194 526.15 165.434 522.198L171.438 520.83C171.59 521.704 172.464 523.452 175.048 523.452C177.366 523.452 178.544 521.856 178.544 519.842C178.544 517.372 176.91 516.422 174.934 516.422C173.528 516.422 172.388 517.068 171.552 517.638L166.612 516.498L168.246 502.134H182.952V508.29H172.996L172.502 512.698C173.68 511.976 175.01 511.558 176.568 511.558ZM190.864 522.388C192.726 522.388 194.284 523.946 194.284 525.808C194.284 527.708 192.726 529.228 190.864 529.228C188.964 529.228 187.444 527.708 187.444 525.808C187.444 523.946 188.964 522.388 190.864 522.388ZM207.745 501.678C215.725 501.678 219.145 508.024 219.145 515.434C219.145 522.844 215.725 529.228 207.745 529.228C199.803 529.228 196.383 522.844 196.383 515.434C196.383 508.024 199.803 501.678 207.745 501.678ZM207.745 522.958C211.355 522.958 212.647 519.348 212.647 515.434C212.647 511.558 211.355 507.948 207.745 507.948C204.173 507.948 202.881 511.558 202.881 515.434C202.881 519.348 204.173 522.958 207.745 522.958ZM233.165 501.678C241.145 501.678 244.565 508.024 244.565 515.434C244.565 522.844 241.145 529.228 233.165 529.228C225.223 529.228 221.803 522.844 221.803 515.434C221.803 508.024 225.223 501.678 233.165 501.678ZM233.165 522.958C236.775 522.958 238.067 519.348 238.067 515.434C238.067 511.558 236.775 507.948 233.165 507.948C229.593 507.948 228.301 511.558 228.301 515.434C228.301 519.348 229.593 522.958 233.165 522.958ZM258.585 501.678C266.565 501.678 269.985 508.024 269.985 515.434C269.985 522.844 266.565 529.228 258.585 529.228C250.643 529.228 247.223 522.844 247.223 515.434C247.223 508.024 250.643 501.678 258.585 501.678ZM258.585 522.958C262.195 522.958 263.487 519.348 263.487 515.434C263.487 511.558 262.195 507.948 258.585 507.948C255.013 507.948 253.721 511.558 253.721 515.434C253.721 519.348 255.013 522.958 258.585 522.958ZM275.511 522.388C277.373 522.388 278.931 523.946 278.931 525.808C278.931 527.708 277.373 529.228 275.511 529.228C273.611 529.228 272.091 527.708 272.091 525.808C272.091 523.946 273.611 522.388 275.511 522.388ZM292.392 501.678C300.372 501.678 303.792 508.024 303.792 515.434C303.792 522.844 300.372 529.228 292.392 529.228C284.45 529.228 281.03 522.844 281.03 515.434C281.03 508.024 284.45 501.678 292.392 501.678ZM292.392 522.958C296.002 522.958 297.294 519.348 297.294 515.434C297.294 511.558 296.002 507.948 292.392 507.948C288.82 507.948 287.528 511.558 287.528 515.434C287.528 519.348 288.82 522.958 292.392 522.958ZM317.812 501.678C325.792 501.678 329.212 508.024 329.212 515.434C329.212 522.844 325.792 529.228 317.812 529.228C309.87 529.228 306.45 522.844 306.45 515.434C306.45 508.024 309.87 501.678 317.812 501.678ZM317.812 522.958C321.422 522.958 322.714 519.348 322.714 515.434C322.714 511.558 321.422 507.948 317.812 507.948C314.24 507.948 312.948 511.558 312.948 515.434C312.948 519.348 314.24 522.958 317.812 522.958ZM343.232 501.678C351.212 501.678 354.632 508.024 354.632 515.434C354.632 522.844 351.212 529.228 343.232 529.228C335.29 529.228 331.87 522.844 331.87 515.434C331.87 508.024 335.29 501.678 343.232 501.678ZM343.232 522.958C346.842 522.958 348.134 519.348 348.134 515.434C348.134 511.558 346.842 507.948 343.232 507.948C339.66 507.948 338.368 511.558 338.368 515.434C338.368 519.348 339.66 522.958 343.232 522.958Z" fill="white"/>
</g>
<rect x="1005.31" y="488.734" width="379" height="56" fill="#03695E"/>
<g filter="url(#filter11_d_98_239)">
<path d="M1093.75 530.734H1086.84L1082.35 521.842C1082.24 521.842 1082.13 521.842 1081.97 521.842H1078.25V530.734H1071.75V504.134H1081.97C1088.74 504.134 1092.2 508.01 1092.2 513.33C1092.2 516.522 1090.64 518.916 1088.09 520.36L1093.75 530.734ZM1078.25 510.29V516.37H1081.97C1083.87 516.37 1085.62 515.61 1085.62 513.33C1085.62 511.354 1084.14 510.29 1081.97 510.29H1078.25ZM1107.87 511.012C1113.83 511.012 1117.1 516.066 1117.1 521.12C1117.1 526.174 1113.83 531.228 1107.87 531.228C1105.24 531.228 1103.53 530.24 1102.43 528.872V538.068H1096.24V511.468H1102.43V513.368C1103.53 512 1105.24 511.012 1107.87 511.012ZM1106.73 525.224C1109.31 525.224 1110.87 523.476 1110.87 521.12C1110.87 518.726 1109.31 516.978 1106.73 516.978C1104.41 516.978 1102.62 518.536 1102.62 521.12C1102.62 523.666 1104.41 525.224 1106.73 525.224ZM1144.75 516.978C1147.34 518.08 1148.78 520.132 1148.78 523.21C1148.78 527.998 1145.02 531.228 1138.9 531.228C1133.85 531.228 1129.59 528.568 1128.87 524.274L1135.06 522.83C1135.29 523.894 1136.24 525.452 1138.9 525.452C1141.29 525.452 1142.24 524.084 1142.24 522.336C1142.24 520.322 1140.42 519.6 1138.56 519.6H1135.97V514.584H1138.56C1140.57 514.584 1141.9 513.824 1141.9 512.038C1141.9 510.252 1140.65 509.34 1138.9 509.34C1137.19 509.34 1136.05 510.404 1135.78 511.658L1129.78 510.29C1130.73 506.376 1134.38 503.678 1138.9 503.678C1144.9 503.678 1148.17 506.908 1148.17 511.316C1148.17 513.71 1147.03 515.724 1144.75 516.978ZM1155.05 524.388C1156.91 524.388 1158.47 525.946 1158.47 527.808C1158.47 529.708 1156.91 531.228 1155.05 531.228C1153.15 531.228 1151.63 529.708 1151.63 527.808C1151.63 525.946 1153.15 524.388 1155.05 524.388ZM1171.93 503.678C1179.91 503.678 1183.33 510.024 1183.33 517.434C1183.33 524.844 1179.91 531.228 1171.93 531.228C1163.99 531.228 1160.57 524.844 1160.57 517.434C1160.57 510.024 1163.99 503.678 1171.93 503.678ZM1171.93 524.958C1175.54 524.958 1176.83 521.348 1176.83 517.434C1176.83 513.558 1175.54 509.948 1171.93 509.948C1168.36 509.948 1167.07 513.558 1167.07 517.434C1167.07 521.348 1168.36 524.958 1171.93 524.958ZM1197.35 503.678C1205.33 503.678 1208.75 510.024 1208.75 517.434C1208.75 524.844 1205.33 531.228 1197.35 531.228C1189.41 531.228 1185.99 524.844 1185.99 517.434C1185.99 510.024 1189.41 503.678 1197.35 503.678ZM1197.35 524.958C1200.96 524.958 1202.25 521.348 1202.25 517.434C1202.25 513.558 1200.96 509.948 1197.35 509.948C1193.78 509.948 1192.49 513.558 1192.49 517.434C1192.49 521.348 1193.78 524.958 1197.35 524.958ZM1222.77 503.678C1230.75 503.678 1234.17 510.024 1234.17 517.434C1234.17 524.844 1230.75 531.228 1222.77 531.228C1214.83 531.228 1211.41 524.844 1211.41 517.434C1211.41 510.024 1214.83 503.678 1222.77 503.678ZM1222.77 524.958C1226.38 524.958 1227.67 521.348 1227.67 517.434C1227.67 513.558 1226.38 509.948 1222.77 509.948C1219.2 509.948 1217.91 513.558 1217.91 517.434C1217.91 521.348 1219.2 524.958 1222.77 524.958ZM1239.7 524.388C1241.56 524.388 1243.12 525.946 1243.12 527.808C1243.12 529.708 1241.56 531.228 1239.7 531.228C1237.8 531.228 1236.28 529.708 1236.28 527.808C1236.28 525.946 1237.8 524.388 1239.7 524.388ZM1256.58 503.678C1264.56 503.678 1267.98 510.024 1267.98 517.434C1267.98 524.844 1264.56 531.228 1256.58 531.228C1248.64 531.228 1245.22 524.844 1245.22 517.434C1245.22 510.024 1248.64 503.678 1256.58 503.678ZM1256.58 524.958C1260.19 524.958 1261.48 521.348 1261.48 517.434C1261.48 513.558 1260.19 509.948 1256.58 509.948C1253.01 509.948 1251.71 513.558 1251.71 517.434C1251.71 521.348 1253.01 524.958 1256.58 524.958ZM1282 503.678C1289.98 503.678 1293.4 510.024 1293.4 517.434C1293.4 524.844 1289.98 531.228 1282 531.228C1274.06 531.228 1270.64 524.844 1270.64 517.434C1270.64 510.024 1274.06 503.678 1282 503.678ZM1282 524.958C1285.61 524.958 1286.9 521.348 1286.9 517.434C1286.9 513.558 1285.61 509.948 1282 509.948C1278.43 509.948 1277.13 513.558 1277.13 517.434C1277.13 521.348 1278.43 524.958 1282 524.958ZM1307.42 503.678C1315.4 503.678 1318.82 510.024 1318.82 517.434C1318.82 524.844 1315.4 531.228 1307.42 531.228C1299.48 531.228 1296.06 524.844 1296.06 517.434C1296.06 510.024 1299.48 503.678 1307.42 503.678ZM1307.42 524.958C1311.03 524.958 1312.32 521.348 1312.32 517.434C1312.32 513.558 1311.03 509.948 1307.42 509.948C1303.85 509.948 1302.55 513.558 1302.55 517.434C1302.55 521.348 1303.85 524.958 1307.42 524.958Z" fill="white"/>
</g>
<defs>
<filter id="filter0_d_98_239" x="585.684" y="52.6064" width="51.3682" height="84.1281" filterUnits="userSpaceOnUse" color-interpolation-filters="sRGB">
<feFlood flood-opacity="0" result="BackgroundImageFix"/>
<feColorMatrix in="SourceAlpha" type="matrix" values="0 0 0 0 0 0 0 0 0 0 0 0 0 0 0 0 0 0 127 0" result="hardAlpha"/>
<feOffset dy="4"/>
<feGaussianBlur stdDeviation="2"/>
<feComposite in2="hardAlpha" operator="out"/>
<feColorMatrix type="matrix" values="0 0 0 0 0 0 0 0 0 0 0 0 0 0 0 0 0 0 0.25 0"/>
<feBlend mode="normal" in2="BackgroundImageFix" result="effect1_dropShadow_98_239"/>
<feBlend mode="normal" in="SourceGraphic" in2="effect1_dropShadow_98_239" result="shape"/>
</filter>
<filter id="filter1_d_98_239" x="641.148" y="41.4065" width="53.2969" height="43.056" filterUnits="userSpaceOnUse" color-interpolation-filters="sRGB">
<feFlood flood-opacity="0" result="BackgroundImageFix"/>
<feColorMatrix in="SourceAlpha" type="matrix" values="0 0 0 0 0 0 0 0 0 0 0 0 0 0 0 0 0 0 127 0" result="hardAlpha"/>
<feOffset dy="4"/>
<feGaussianBlur stdDeviation="2"/>
<feComposite in2="hardAlpha" operator="out"/>
<feColorMatrix type="matrix" values="0 0 0 0 0 0 0 0 0 0 0 0 0 0 0 0 0 0 0.25 0"/>
<feBlend mode="normal" in2="BackgroundImageFix" result="effect1_dropShadow_98_239"/>
<feBlend mode="normal" in="SourceGraphic" in2="effect1_dropShadow_98_239" result="shape"/>
</filter>
<filter id="filter2_d_98_239" x="698.668" y="85.8625" width="174.718" height="48.6" filterUnits="userSpaceOnUse" color-interpolation-filters="sRGB">
<feFlood flood-opacity="0" result="BackgroundImageFix"/>
<feColorMatrix in="SourceAlpha" type="matrix" values="0 0 0 0 0 0 0 0 0 0 0 0 0 0 0 0 0 0 127 0" result="hardAlpha"/>
<feOffset dy="4"/>
<feGaussianBlur stdDeviation="2"/>
<feComposite in2="hardAlpha" operator="out"/>
<feColorMatrix type="matrix" values="0 0 0 0 0 0 0 0 0 0 0 0 0 0 0 0 0 0 0.25 0"/>
<feBlend mode="normal" in2="BackgroundImageFix" result="effect1_dropShadow_98_239"/>
<feBlend mode="normal" in="SourceGraphic" in2="effect1_dropShadow_98_239" result="shape"/>
</filter>
<filter id="filter3_d_98_239" x="1059.28" y="367.359" width="65.5117" height="86.624" filterUnits="userSpaceOnUse" color-interpolation-filters="sRGB">
<feFlood flood-opacity="0" result="BackgroundImageFix"/>
<feColorMatrix in="SourceAlpha" type="matrix" values="0 0 0 0 0 0 0 0 0 0 0 0 0 0 0 0 0 0 127 0" result="hardAlpha"/>
<feOffset dy="4"/>
<feGaussianBlur stdDeviation="2"/>
<feComposite in2="hardAlpha" operator="out"/>
<feColorMatrix type="matrix" values="0 0 0 0 0 0 0 0 0 0 0 0 0 0 0 0 0 0 0.25 0"/>
<feBlend mode="normal" in2="BackgroundImageFix" result="effect1_dropShadow_98_239"/>
<feBlend mode="normal" in="SourceGraphic" in2="effect1_dropShadow_98_239" result="shape"/>
</filter>
<filter id="filter4_d_98_239" x="1125.39" y="352.535" width="58.9922" height="47.928" filterUnits="userSpaceOnUse" color-interpolation-filters="sRGB">
<feFlood flood-opacity="0" result="BackgroundImageFix"/>
<feColorMatrix in="SourceAlpha" type="matrix" values="0 0 0 0 0 0 0 0 0 0 0 0 0 0 0 0 0 0 127 0" result="hardAlpha"/>
<feOffset dy="4"/>
<feGaussianBlur stdDeviation="2"/>
<feComposite in2="hardAlpha" operator="out"/>
<feColorMatrix type="matrix" values="0 0 0 0 0 0 0 0 0 0 0 0 0 0 0 0 0 0 0.25 0"/>
<feBlend mode="normal" in2="BackgroundImageFix" result="effect1_dropShadow_98_239"/>
<feBlend mode="normal" in="SourceGraphic" in2="effect1_dropShadow_98_239" result="shape"/>
</filter>
<filter id="filter5_d_98_239" x="1180.67" y="401.862" width="174.718" height="48.6001" filterUnits="userSpaceOnUse" color-interpolation-filters="sRGB">
<feFlood flood-opacity="0" result="BackgroundImageFix"/>
<feColorMatrix in="SourceAlpha" type="matrix" values="0 0 0 0 0 0 0 0 0 0 0 0 0 0 0 0 0 0 127 0" result="hardAlpha"/>
<feOffset dy="4"/>
<feGaussianBlur stdDeviation="2"/>
<feComposite in2="hardAlpha" operator="out"/>
<feColorMatrix type="matrix" values="0 0 0 0 0 0 0 0 0 0 0 0 0 0 0 0 0 0 0.25 0"/>
<feBlend mode="normal" in2="BackgroundImageFix" result="effect1_dropShadow_98_239"/>
<feBlend mode="normal" in="SourceGraphic" in2="effect1_dropShadow_98_239" result="shape"/>
</filter>
<filter id="filter6_d_98_239" x="99.8442" y="367.463" width="67.9038" height="85.272" filterUnits="userSpaceOnUse" color-interpolation-filters="sRGB">
<feFlood flood-opacity="0" result="BackgroundImageFix"/>
<feColorMatrix in="SourceAlpha" type="matrix" values="0 0 0 0 0 0 0 0 0 0 0 0 0 0 0 0 0 0 127 0" result="hardAlpha"/>
<feOffset dy="4"/>
<feGaussianBlur stdDeviation="2"/>
<feComposite in2="hardAlpha" operator="out"/>
<feColorMatrix type="matrix" values="0 0 0 0 0 0 0 0 0 0 0 0 0 0 0 0 0 0 0.25 0"/>
<feBlend mode="normal" in2="BackgroundImageFix" result="effect1_dropShadow_98_239"/>
<feBlend mode="normal" in="SourceGraphic" in2="effect1_dropShadow_98_239" result="shape"/>
</filter>
<filter id="filter7_d_98_239" x="168.388" y="352.535" width="70.4219" height="47.928" filterUnits="userSpaceOnUse" color-interpolation-filters="sRGB">
<feFlood flood-opacity="0" result="BackgroundImageFix"/>
<feColorMatrix in="SourceAlpha" type="matrix" values="0 0 0 0 0 0 0 0 0 0 0 0 0 0 0 0 0 0 127 0" result="hardAlpha"/>
<feOffset dy="4"/>
<feGaussianBlur stdDeviation="2"/>
<feComposite in2="hardAlpha" operator="out"/>
<feColorMatrix type="matrix" values="0 0 0 0 0 0 0 0 0 0 0 0 0 0 0 0 0 0 0.25 0"/>
<feBlend mode="normal" in2="BackgroundImageFix" result="effect1_dropShadow_98_239"/>
<feBlend mode="normal" in="SourceGraphic" in2="effect1_dropShadow_98_239" result="shape"/>
</filter>
<filter id="filter8_d_98_239" x="221.668" y="401.862" width="174.718" height="48.6001" filterUnits="userSpaceOnUse" color-interpolation-filters="sRGB">
<feFlood flood-opacity="0" result="BackgroundImageFix"/>
<feColorMatrix in="SourceAlpha" type="matrix" values="0 0 0 0 0 0 0 0 0 0 0 0 0 0 0 0 0 0 127 0" result="hardAlpha"/>
<feOffset dy="4"/>
<feGaussianBlur stdDeviation="2"/>
<feComposite in2="hardAlpha" operator="out"/>
<feColorMatrix type="matrix" values="0 0 0 0 0 0 0 0 0 0 0 0 0 0 0 0 0 0 0.25 0"/>
<feBlend mode="normal" in2="BackgroundImageFix" result="effect1_dropShadow_98_239"/>
<feBlend mode="normal" in="SourceGraphic" in2="effect1_dropShadow_98_239" result="shape"/>
</filter>
<filter id="filter9_d_98_239" x="588.404" y="185.679" width="249.759" height="42.3899" filterUnits="userSpaceOnUse" color-interpolation-filters="sRGB">
<feFlood flood-opacity="0" result="BackgroundImageFix"/>
<feColorMatrix in="SourceAlpha" type="matrix" values="0 0 0 0 0 0 0 0 0 0 0 0 0 0 0 0 0 0 127 0" result="hardAlpha"/>
<feOffset dy="4"/>
<feGaussianBlur stdDeviation="2"/>
<feComposite in2="hardAlpha" operator="out"/>
<feColorMatrix type="matrix" values="0 0 0 0 0 0 0 0 0 0 0 0 0 0 0 0 0 0 0.25 0"/>
<feBlend mode="normal" in2="BackgroundImageFix" result="effect1_dropShadow_98_239"/>
<feBlend mode="normal" in="SourceGraphic" in2="effect1_dropShadow_98_239" result="shape"/>
</filter>
<filter id="filter10_d_98_239" x="103.937" y="501.679" width="254.695" height="42.3899" filterUnits="userSpaceOnUse" color-interpolation-filters="sRGB">
<feFlood flood-opacity="0" result="BackgroundImageFix"/>
<feColorMatrix in="SourceAlpha" type="matrix" values="0 0 0 0 0 0 0 0 0 0 0 0 0 0 0 0 0 0 127 0" result="hardAlpha"/>
<feOffset dy="4"/>
<feGaussianBlur stdDeviation="2"/>
<feComposite in2="hardAlpha" operator="out"/>
<feColorMatrix type="matrix" values="0 0 0 0 0 0 0 0 0 0 0 0 0 0 0 0 0 0 0.25 0"/>
<feBlend mode="normal" in2="BackgroundImageFix" result="effect1_dropShadow_98_239"/>
<feBlend mode="normal" in="SourceGraphic" in2="effect1_dropShadow_98_239" result="shape"/>
</filter>
<filter id="filter11_d_98_239" x="1067.75" y="503.679" width="255.066" height="42.3899" filterUnits="userSpaceOnUse" color-interpolation-filters="sRGB">
<feFlood flood-opacity="0" result="BackgroundImageFix"/>
<feColorMatrix in="SourceAlpha" type="matrix" values="0 0 0 0 0 0 0 0 0 0 0 0 0 0 0 0 0 0 127 0" result="hardAlpha"/>
<feOffset dy="4"/>
<feGaussianBlur stdDeviation="2"/>
<feComposite in2="hardAlpha" operator="out"/>
<feColorMatrix type="matrix" values="0 0 0 0 0 0 0 0 0 0 0 0 0 0 0 0 0 0 0.25 0"/>
<feBlend mode="normal" in2="BackgroundImageFix" result="effect1_dropShadow_98_239"/>
<feBlend mode="normal" in="SourceGraphic" in2="effect1_dropShadow_98_239" result="shape"/>
</filter>
<linearGradient id="paint0_linear_98_239" x1="479.808" y1="94.7345" x2="1075.31" y2="94.7345" gradientUnits="userSpaceOnUse">
<stop stop-color="#03695E"/>
<stop offset="0.495192" stop-color="#6EAF5F"/>
<stop offset="0.9999" stop-color="#F4E5A2"/>
</linearGradient>
<linearGradient id="paint1_linear_98_239" x1="961.808" y1="410.734" x2="1557.31" y2="410.734" gradientUnits="userSpaceOnUse">
<stop stop-color="#03695E"/>
<stop offset="0.495192" stop-color="#6EAF5F"/>
<stop offset="0.9999" stop-color="#F4E5A2"/>
</linearGradient>
<linearGradient id="paint2_linear_98_239" x1="-2.19189" y1="410.734" x2="593.308" y2="410.734" gradientUnits="userSpaceOnUse">
<stop stop-color="#03695E"/>
<stop offset="0.495192" stop-color="#6EAF5F"/>
<stop offset="0.9999" stop-color="#F4E5A2"/>
</linearGradient>
</defs>
</svg>
